<?xml version="1.0" encoding="UTF-8" standalone="no"?>
<svg
        version="1.1"
        id="food-radar"
        width="36"
        height="36"
        xmlns="http://www.w3.org/2000/svg">
    <path
            id="food-radar"
            style="stroke-width:0.999607"
            d="m 20.503906,3 -0.529297,0.5273438 -3.74414,3.7460937 -1.324219,-1.34375 a 1.2444036,1.2445742 0 0 0 0.01367,-0.1757813 1.2444036,1.2445742 0 0 0 -1.246094,-1.2441406 1.2444036,1.2445742 0 0 0 -1.24414,1.2441406 1.2444036,1.2445742 0 0 0 1.24414,1.2441407 1.2444036,1.2445742 0 0 0 0.177734,-0.011719 h 0.002 l 1.320312,1.34375 L 11,12.503906 l 0.529297,0.529297 c 1.69673,1.696963 4.172456,2.359415 6.490234,1.738281 2.317775,-0.62113 4.130908,-2.433858 4.751953,-4.751953 0.621049,-2.3180945 -0.0435,-4.7952242 -1.740234,-6.4921872 z m -0.142578,2.2539062 c 0.931605,1.2672697 1.381287,2.8317939 0.966797,4.3789063 -0.483588,1.8050175 -1.890542,3.2136125 -3.695313,3.6972655 -1.547061,0.414591 -3.111754,-0.03484 -4.378906,-0.966797 z M 18.001953,16 C 12.29645,16 7.6997836,18.720003 8.0195312,22 H 27.984375 c 0.319748,-3.279997 -4.27692,-6 -9.982422,-6 z m -6.673828,7.5 c -1.109126,0 -1.7300419,0.370625 -2.1796875,0.640625 C 8.7787279,24.370625 8.5595584,24.5 8,24.5 v 2 c 1.1091259,0 1.7293619,-0.370625 2.208984,-0.640625 0.369709,-0.23 0.589106,-0.359375 1.138672,-0.359375 0.549567,0 0.778729,0.139375 1.148438,0.359375 0.449645,0.27 1.068608,0.640625 2.177734,0.640625 1.109126,0 1.730042,-0.370625 2.179688,-0.640625 0.369708,-0.23 0.588878,-0.359375 1.148437,-0.359375 0.549567,0 0.778729,0.139375 1.148438,0.359375 0.449645,0.27 1.070562,0.640625 2.179687,0.640625 1.109126,0 1.728089,-0.370625 2.177734,-0.640625 0.369709,-0.23 0.58888,-0.359375 1.148438,-0.359375 0.549567,0 0.780682,0.139375 1.150391,0.359375 0.449645,0.27 1.068834,0.630625 2.167968,0.640625 v -1.980469 c 0,0 -0.790447,-0.158906 -1.160156,-0.378906 C 26.364808,23.870625 25.745845,23.5 24.636719,23.5 c -1.109126,0 -1.728089,0.370625 -2.177735,0.640625 -0.369708,0.23 -0.600823,0.359375 -1.15039,0.359375 -0.549567,0 -0.778729,-0.139375 -1.148438,-0.359375 C 19.710511,23.870625 19.091548,23.5 17.982422,23.5 c -1.109126,0 -1.728089,0.370625 -2.177734,0.640625 C 15.434979,24.370625 15.213855,24.5 14.654297,24.5 14.104729,24.5 13.875568,24.360625 13.505859,24.140625 13.056214,23.870625 12.437251,23.5 11.328125,23.5 Z M 8,28 v 2 c 0,1.099999 0.898913,2 1.9980469,2 H 25.986328 c 1.099134,0 1.998047,-0.900001 1.998047,-2 v -2 z"/>
</svg>
