<?xml version="1.0" encoding="UTF-8" standalone="no"?>
<svg
        version="1.1"
        id="radar-spinner"
        width="36"
        height="36"
        xmlns="http://www.w3.org/2000/svg">
    <path
            id="radar-spinner"
            d="M 14.885313,25.371562 C 13.928125,24.966875 13.06625,24.38125 12.3425,23.6575 10.895,22.21 10,20.21 10,18 c 0,-4.08 3.05,-7.44 7,-7.93 v 2.02 c -2.84,0.48 -5,2.94 -5,5.91 0,1.655 0.6725,3.155 1.75875,4.24125 l 1.4125,-1.4125 C 14.4475,20.105 14,19.105 14,18 c 0,-1.86 1.28,-3.41 3,-3.86 v 2.14 c -0.6,0.35 -1,0.98 -1,1.72 0,1.1 0.9,2 2,2 1.1,0 2,-0.9 2,-2 0,-0.74 -0.4,-1.38 -1,-1.72 V 8 H 18 C 12.48,8 8,12.48 8,18 c 0,2.76 1.12,5.26 2.93,7.07 0.905,0.905 1.9825,1.6375 3.17875,2.14375 z"/>
</svg>
