<?xml version="1.0" encoding="UTF-8" standalone="no"?>
<svg
   version="1.1"
   id="truck_gone"
   width="36"
   height="36"
   xmlns="http://www.w3.org/2000/svg">
  <path
     id="truck_gone"
     d="m 2.766449,20 h 8 v 2 h -8 z M 1,17 h 8 v 2 H 1 Z m 2,-3 h 8 v 2 H 3 Z m 29,0 H 29 V 10 H 15 c -1.1,0 -2,0.9 -2,2 v 11 h 2 c 0,1.66 1.34,3 3,3 1.66,0 3,-1.34 3,-3 h 6 c 0,1.66 1.34,3 3,3 1.66,0 3,-1.34 3,-3 h 2 V 18 Z M 18,24.5 c -0.83,0 -1.5,-0.67 -1.5,-1.5 0,-0.83 0.67,-1.5 1.5,-1.5 0.83,0 1.5,0.67 1.5,1.5 0,0.83 -0.67,1.5 -1.5,1.5 z m 13.5,-9 1.96,2.5 H 29 v -2.5 z m -1.5,9 c -0.83,0 -1.5,-0.67 -1.5,-1.5 0,-0.83 0.67,-1.5 1.5,-1.5 0.83,0 1.5,0.67 1.5,1.5 0,0.83 -0.67,1.5 -1.5,1.5 z" />
</svg>
